<?xml version="1.0" encoding="utf-8"?>
<!-- Generator: Adobe Illustrator 16.0.0, SVG Export Plug-In . SVG Version: 6.00 Build 0)  -->
<!DOCTYPE svg PUBLIC "-//W3C//DTD SVG 1.1//EN" "http://www.w3.org/Graphics/SVG/1.1/DTD/svg11.dtd">
<svg version="1.1" id="Layer_1" xmlns="http://www.w3.org/2000/svg" xmlns:xlink="http://www.w3.org/1999/xlink" x="0px" y="0px"
	 width="64px" height="64px" viewBox="0 0 64 64" enable-background="new 0 0 64 64" xml:space="preserve">
<g>
	<g>
		<circle fill="#8D0000" cx="22.109" cy="42.456" r="4.418"/>
		<circle fill="#FFFFFF" cx="22.109" cy="42.457" r="2.197"/>
		<circle fill="#8D0000" cx="50.38" cy="42.456" r="4.418"/>
		<circle fill="#FFFFFF" cx="50.38" cy="42.457" r="2.197"/>
		<g>
			<path fill="#FFFFFF" d="M61.68,35.387c-0.194-0.267-1.884-3.732-2.897-4.043c-1.015-0.311-7.05-1.155-9.368-1.689
				c-0.558-0.128-1.423-0.454-2.256-1.12c-3.506-2.804-6.988-5.147-9.043-5.722c-2.703-0.755-9.463-0.623-12.071-0.489
				c-2.607,0.134-7.677,5.021-8.16,5.376c-0.483,0.355-2.367,0.533-4.491,0.755c-1.295,0.136-1.465,0.626-1.545,1.511
				c-0.129,1.417-0.29,2.34-0.29,2.814c0,0.474-0.35,0.806-0.772,1.126c-0.724,0.547-0.869,0.77-0.869,1.777
				c0,1.007,0.064,2.137,0.29,3.49c0.143,0.856,0.483,1.641,1.642,1.738c0.632,0.053,2.728,0.248,4.503,0.416
				c0.526-2.7,2.904-4.738,5.757-4.738c2.945,0,5.382,2.17,5.802,4.998c4.861,0,11.036,0,16.667,0
				c0.42-2.828,2.857-4.998,5.802-4.998c2.945,0,5.383,2.17,5.803,4.998c2.121,0,3.508,0,3.758,0c1.594,0,2.56-3.446,2.56-4.469
				C62.5,36.098,61.872,35.653,61.68,35.387z"/>
			<path fill="#8D0000" d="M59.94,42.838h-3.758c-0.619,0-1.146-0.454-1.236-1.066c-0.333-2.241-2.296-3.932-4.566-3.932
				c-2.27,0-4.232,1.69-4.565,3.932c-0.091,0.612-0.617,1.066-1.236,1.066H27.911c-0.62,0-1.146-0.454-1.236-1.066
				c-0.333-2.241-2.296-3.932-4.566-3.932c-2.204,0-4.109,1.567-4.53,3.728c-0.124,0.631-0.699,1.068-1.345,1.005
				c-1.771-0.167-3.86-0.362-4.49-0.414c-1.068-0.091-2.414-0.646-2.771-2.778c-0.209-1.258-0.307-2.433-0.307-3.696
				c0-1.369,0.293-1.966,1.365-2.775c0.158-0.12,0.238-0.193,0.277-0.235c0.009-0.312,0.056-0.694,0.117-1.204
				c0.053-0.438,0.118-0.976,0.177-1.617c0.107-1.18,0.507-2.416,2.66-2.641l0.344-0.036c1.349-0.14,3.196-0.332,3.604-0.526
				c-0.002-0.009,0.151-0.147,0.369-0.339c2.847-2.522,6.071-5.116,8.399-5.236c0.481-0.024,2.225-0.104,4.481-0.104
				c3.786,0,6.474,0.215,7.99,0.638c2.739,0.766,7.12,4.056,9.487,5.95c0.773,0.618,1.539,0.828,1.755,0.878
				c1.138,0.262,3.283,0.615,5.177,0.926c2.293,0.377,3.726,0.617,4.278,0.786c1.091,0.334,2.059,1.782,3.362,4.17
				c0.097,0.177,0.168,0.31,0.209,0.375l0.031,0.023c0.324,0.354,0.999,1.09,0.999,2.402C63.75,38.498,62.604,42.838,59.94,42.838z
				 M57.174,40.338h2.742c0.529-0.222,1.334-2.309,1.334-3.219c0-0.341-0.136-0.488-0.342-0.713c-0.1-0.109-0.183-0.205-0.242-0.288
				c-0.046-0.063-0.175-0.282-0.349-0.602c-1.208-2.211-1.744-2.83-1.967-2.996c-0.523-0.138-2.306-0.431-3.886-0.691
				c-2.024-0.333-4.117-0.677-5.331-0.957c-0.552-0.126-1.644-0.472-2.757-1.362c-3.775-3.02-6.909-5.022-8.599-5.494
				c-1.26-0.353-3.858-0.546-7.317-0.546c-2.198,0-3.888,0.078-4.353,0.102c-0.806,0.042-2.653,0.875-6.87,4.61
				c-0.31,0.275-0.526,0.461-0.613,0.525c-0.7,0.514-2.039,0.673-4.759,0.956l-0.342,0.036c-0.2,0.021-0.322,0.048-0.391,0.069
				c-0.012,0.06-0.025,0.156-0.04,0.313c-0.061,0.67-0.128,1.232-0.184,1.69c-0.054,0.446-0.101,0.831-0.101,1.01
				c0,1.161-0.888,1.834-1.267,2.122c-0.264,0.199-0.335,0.273-0.355,0.299c0,0,0,0,0,0c0.005,0-0.02,0.108-0.02,0.482
				c0,1.123,0.086,2.167,0.272,3.285c0.111,0.664,0.237,0.675,0.514,0.698c0.513,0.042,1.991,0.179,3.48,0.319
				c1.017-2.749,3.665-4.646,6.675-4.646c3.129,0,5.88,2.085,6.794,4.998h14.684c0.913-2.913,3.664-4.998,6.793-4.998
				C53.51,35.34,56.26,37.425,57.174,40.338z"/>
		</g>
		<path fill="#8D0000" d="M30.478,29.106c0,0.577-0.193,0.933-0.821,0.933s-6.857-0.267-8.016-0.445
			c-1.159-0.177-0.675-1.644,0.483-2.977c1.159-1.333,2.752-2.398,3.477-2.532c0.725-0.134,3.863-0.089,4.298-0.089
			c0.434,0,0.58,0.488,0.58,0.933C30.478,25.375,30.478,28.617,30.478,29.106z"/>
		<path fill="#8D0000" d="M45.011,30.528c-1.11,0-11.009-0.312-11.733-0.355c-0.724-0.045-1.304-0.222-1.304-1.2s0-3.732,0-4.31
			s0.484-0.578,1.208-0.578c0.724,0,3.889,0.348,5.021,0.799c2.527,1.007,5.811,3.436,7.033,4.502
			C45.781,29.863,45.542,30.528,45.011,30.528z"/>
		
			<path fill="#FFFFFF" stroke="#8D0000" stroke-width="2.5" stroke-linecap="round" stroke-linejoin="round" stroke-miterlimit="10" d="
			M31.646,35.311"/>
		<g>
			<g>
				<path fill="#FFFFFF" d="M33.686,19.905c0.021,0.192-0.117,0.348-0.311,0.348h-1.997c-0.192,0-0.332-0.156-0.312-0.348
					l0.248-2.432c0.02-0.191,0.153-0.347,0.298-0.347h1.507c0.146,0,0.279,0.156,0.301,0.347L33.686,19.905z"/>
			</g>
			<g>
				<path fill="#8D0000" d="M33.375,21.502h-1.997c-0.445,0-0.869-0.188-1.164-0.515s-0.438-0.77-0.391-1.213l0.247-2.428
					c0.088-0.84,0.75-1.471,1.542-1.471h1.507c0.786,0,1.449,0.626,1.543,1.458l0.266,2.436c0.048,0.447-0.094,0.89-0.389,1.218
					C34.245,21.314,33.82,21.502,33.375,21.502z"/>
			</g>
		</g>
	</g>
	<g>
		<path fill="#8D0000" d="M21.601,19.25H10.64c-0.69,0-1.25-0.56-1.25-1.25s0.56-1.25,1.25-1.25h10.961c0.69,0,1.25,0.56,1.25,1.25
			S22.292,19.25,21.601,19.25z"/>
	</g>
	<g>
		<path fill="#8D0000" d="M17.03,23.819H6.07c-0.69,0-1.25-0.56-1.25-1.25s0.56-1.25,1.25-1.25h10.96c0.69,0,1.25,0.56,1.25,1.25
			S17.721,23.819,17.03,23.819z"/>
	</g>
	<g>
		<path fill="#8D0000" d="M7.891,28.389H1.5c-0.69,0-1.25-0.56-1.25-1.25s0.56-1.25,1.25-1.25h6.391c0.69,0,1.25,0.56,1.25,1.25
			S8.582,28.389,7.891,28.389z"/>
	</g>
</g>
</svg>
