<?xml version="1.0" encoding="utf-8"?>
<!-- Generator: Adobe Illustrator 16.0.0, SVG Export Plug-In . SVG Version: 6.00 Build 0)  -->
<!DOCTYPE svg PUBLIC "-//W3C//DTD SVG 1.1//EN" "http://www.w3.org/Graphics/SVG/1.1/DTD/svg11.dtd">
<svg version="1.1" id="Layer_1" xmlns="http://www.w3.org/2000/svg" xmlns:xlink="http://www.w3.org/1999/xlink" x="0px" y="0px"
	 width="64px" height="64px" viewBox="0 0 64 64" enable-background="new 0 0 64 64" xml:space="preserve">
<g>
	<g>
		<g>
			<path fill="#8D0000" d="M33.719,58.186c-0.729,0-1.448-0.191-2.08-0.555l-9.928-5.732l-5.508,3.18
				c-1.271,0.733-2.895,0.734-4.167,0.001l-9.954-5.747C0.798,48.589,0,47.207,0,45.725c0-1.483,0.798-2.866,2.082-3.609
				l14.042-8.119c2.221-1.257,5.057-1.25,7.255-0.003l6.536,3.78h11.887c2.297,0,4.166,1.87,4.166,4.168s-1.869,4.168-4.166,4.168
				H31.223c-0.829,0-1.5-0.672-1.5-1.5s0.671-1.5,1.5-1.5h10.579c0.643,0,1.166-0.524,1.166-1.168s-0.523-1.168-1.166-1.168H29.513
				c-0.264,0-0.523-0.069-0.751-0.201l-6.874-3.976c-1.276-0.727-2.977-0.731-4.273,0.003L3.584,44.713
				C3.224,44.921,3,45.309,3,45.725c0,0.415,0.224,0.802,0.584,1.01l9.952,5.746c0.36,0.208,0.808,0.209,1.167-0.001l6.257-3.612
				c0.464-0.268,1.037-0.268,1.5,0l10.675,6.164c0.354,0.203,0.813,0.204,1.172-0.003l26.108-15.075
				c0.271-0.156,0.463-0.407,0.544-0.708c0.08-0.301,0.039-0.615-0.117-0.886c-0.156-0.271-0.407-0.464-0.709-0.545
				c-0.302-0.08-0.616-0.039-0.886,0.116l-1.688,0.977c-0.346,0.2-0.753,0.254-1.139,0.151c-0.385-0.104-0.712-0.354-0.911-0.699
				c-0.324-0.56-1.041-0.749-1.595-0.429l-1.689,0.978c-0.345,0.199-0.754,0.253-1.14,0.15c-0.384-0.104-0.712-0.355-0.911-0.7
				c-0.155-0.27-0.407-0.463-0.709-0.544c-0.301-0.079-0.615-0.04-0.885,0.116l-1.344,0.777c-0.716,0.414-1.635,0.169-2.05-0.548
				c-0.414-0.718-0.169-1.635,0.548-2.05l1.345-0.777c0.963-0.556,2.084-0.706,3.162-0.416c0.572,0.153,1.094,0.42,1.541,0.781
				l0.631-0.365c1.531-0.884,3.398-0.682,4.701,0.366l0.632-0.365c0.965-0.558,2.088-0.707,3.163-0.417
				c1.076,0.288,1.976,0.979,2.531,1.944c0.556,0.963,0.704,2.086,0.416,3.161s-0.978,1.973-1.942,2.529L35.804,57.629
				C35.167,57.994,34.447,58.186,33.719,58.186z"/>
		</g>
	</g>
	<g>
		<polyline fill="#8D0000" points="30.306,35.611 30.306,7.314 40.474,7.314 40.474,35.611 		"/>
	</g>
	<g>
		<path fill="#8D0000" d="M55.215,33.892c-0.828,0-1.5-0.672-1.5-1.5V9.347c0-0.294-0.239-0.533-0.534-0.533H17.598
			c-0.294,0-0.533,0.239-0.533,0.533v21.785c0,0.829-0.671,1.5-1.5,1.5s-1.5-0.671-1.5-1.5V9.347c0-1.948,1.585-3.533,3.533-3.533
			h35.583c1.949,0,3.534,1.585,3.534,3.533v23.044C56.715,33.22,56.043,33.892,55.215,33.892z"/>
	</g>
</g>
</svg>
