<?xml version="1.0" encoding="utf-8"?>
<!-- Generator: Adobe Illustrator 16.0.0, SVG Export Plug-In . SVG Version: 6.00 Build 0)  -->
<!DOCTYPE svg PUBLIC "-//W3C//DTD SVG 1.1//EN" "http://www.w3.org/Graphics/SVG/1.1/DTD/svg11.dtd">
<svg version="1.1" id="Layer_1" xmlns="http://www.w3.org/2000/svg" xmlns:xlink="http://www.w3.org/1999/xlink" x="0px" y="0px"
	 width="64px" height="64px" viewBox="0 0 64 64" enable-background="new 0 0 64 64" xml:space="preserve">
<g>
	<g>
		<path fill="#8D0000" d="M32,64c-9.418,0-18.32-4.13-24.423-11.331c-0.519-0.612-0.464-1.523,0.124-2.069
			c2.169-2.014,5.926-3.548,13.397-6.336c0.111-0.042,0.126-0.048,0.356-0.461c0.208-0.374,0.493-0.887,1.016-1.408
			c0.726-0.728,1.927-1.228,2.841-1.526v-1.936c-3.523-2.508-5.768-6.771-5.797-11.11l-0.908-8.161
			c-0.006-0.055-0.009-0.11-0.009-0.166c0-6.65,6.263-12.484,13.403-12.484c7.14,0,13.402,5.834,13.402,12.484
			c0,0.055-0.003,0.11-0.009,0.166l-0.906,8.161c-0.029,4.338-2.274,8.601-5.798,11.111v1.936c0.914,0.299,2.115,0.8,2.842,1.528
			c0.521,0.52,0.806,1.032,1.013,1.405c0.23,0.415,0.245,0.42,0.36,0.463c7.452,2.782,11.204,4.315,13.387,6.352
			c0.586,0.546,0.639,1.456,0.12,2.067C50.309,59.875,41.411,64,32,64z M10.915,51.902C16.392,57.703,23.99,61,32,61
			c8.004,0,15.598-3.292,21.074-9.086c-1.984-1.286-5.388-2.662-11.223-4.84c-1.163-0.438-1.605-1.233-1.929-1.814
			c-0.161-0.289-0.289-0.519-0.514-0.742c-0.361-0.363-1.61-0.835-2.551-1.049c-0.683-0.155-1.169-0.763-1.169-1.463v-3.878
			c0-0.521,0.271-1.005,0.714-1.277c3.041-1.872,5.084-5.535,5.084-9.114c0-0.055,0.003-0.11,0.009-0.166l0.906-8.155
			C42.35,14.483,37.415,10.011,32,10.011c-5.416,0-10.351,4.472-10.403,9.405l0.907,8.155c0.006,0.055,0.009,0.11,0.009,0.166
			c0,3.581,2.043,7.244,5.083,9.114c0.444,0.272,0.714,0.756,0.714,1.277v3.878c0,0.7-0.486,1.308-1.169,1.463
			c-0.941,0.214-2.19,0.686-2.55,1.047c-0.228,0.227-0.354,0.455-0.516,0.745c-0.323,0.581-0.766,1.376-1.926,1.813
			C16.198,49.295,12.869,50.637,10.915,51.902z"/>
	</g>
	<g>
		<path fill="#8D0000" d="M5.36,48.363c-0.526,0-1.037-0.277-1.311-0.769c-6.94-12.431-4.752-28.147,5.32-38.22
			c9.115-9.116,22.726-11.877,34.673-7.031c0.768,0.312,1.138,1.186,0.826,1.954c-0.311,0.768-1.184,1.137-1.953,0.826
			c-10.83-4.392-23.163-1.891-31.425,6.372C2.362,20.625,0.379,34.867,6.668,46.132c0.404,0.724,0.145,1.638-0.579,2.041
			C5.858,48.302,5.607,48.363,5.36,48.363z"/>
	</g>
	<g>
		<path fill="#8D0000" d="M58.641,48.363c-0.248,0-0.499-0.062-0.73-0.19c-0.723-0.403-0.982-1.317-0.578-2.041
			c5.425-9.717,4.771-21.848-1.666-30.905c-0.479-0.675-0.321-1.612,0.354-2.092s1.61-0.322,2.092,0.354
			c7.104,9.997,7.826,23.384,1.84,34.106C59.677,48.086,59.166,48.363,58.641,48.363z"/>
	</g>
	<g>
		<g>
			<path fill="#8D0000" d="M57.66,9.61H44.441c-0.828,0-1.5-0.671-1.5-1.5s0.672-1.5,1.5-1.5H57.66c0.828,0,1.5,0.671,1.5,1.5
				S58.488,9.61,57.66,9.61z"/>
		</g>
		<g>
			<path fill="#8D0000" d="M51.051,16.219c-0.828,0-1.5-0.671-1.5-1.5V1.5c0-0.829,0.672-1.5,1.5-1.5s1.5,0.671,1.5,1.5v13.219
				C52.551,15.547,51.879,16.219,51.051,16.219z"/>
		</g>
	</g>
</g>
</svg>
