<?xml version="1.0" encoding="utf-8"?>
<!-- Generator: Adobe Illustrator 16.0.0, SVG Export Plug-In . SVG Version: 6.00 Build 0)  -->
<!DOCTYPE svg PUBLIC "-//W3C//DTD SVG 1.1//EN" "http://www.w3.org/Graphics/SVG/1.1/DTD/svg11.dtd">
<svg version="1.1" id="Layer_1" xmlns="http://www.w3.org/2000/svg" xmlns:xlink="http://www.w3.org/1999/xlink" x="0px" y="0px"
	 width="64px" height="64px" viewBox="0 0 64 64" enable-background="new 0 0 64 64" xml:space="preserve">
<g>
	<g>
		<path fill="#8D0000" d="M61.018,49.785c0,3.274-2.654,5.929-5.929,5.929s-5.929-2.654-5.929-5.929
			c3.514-1.701,5.051-3.897,5.929-5.929C58.363,43.856,61.018,46.511,61.018,49.785z"/>
		<path fill="#8D0000" d="M55.089,56.964c-3.958,0-7.179-3.221-7.179-7.179c0-0.479,0.274-0.916,0.705-1.125
			c3.402-1.647,4.634-3.697,5.326-5.3c0.198-0.458,0.648-0.754,1.147-0.754c3.958,0,7.179,3.221,7.179,7.179
			S59.047,56.964,55.089,56.964z M50.468,50.52c0.353,2.232,2.291,3.944,4.621,3.944c2.58,0,4.679-2.099,4.679-4.679
			c0-2.32-1.697-4.252-3.916-4.616C54.681,47.447,52.942,49.175,50.468,50.52z"/>
	</g>
	<g>
		<circle fill="#8D0000" cx="19.519" cy="49.785" r="5.929"/>
		<path fill="#8D0000" d="M19.519,56.964c-3.958,0-7.179-3.221-7.179-7.179s3.22-7.179,7.179-7.179s7.179,3.221,7.179,7.179
			S23.477,56.964,19.519,56.964z M19.519,45.106c-2.58,0-4.679,2.099-4.679,4.679s2.099,4.679,4.679,4.679s4.679-2.099,4.679-4.679
			S22.099,45.106,19.519,45.106z"/>
	</g>
	<g>
		<circle fill="#FFFFFF" cx="19.519" cy="49.785" r="2.964"/>
	</g>
	<g>
		<circle fill="#FFFFFF" cx="55.089" cy="49.785" r="2.964"/>
	</g>
	<g>
		<g>
			<path fill="#FFFFFF" d="M47.679,49.785H62.5c0-4.093-3.318-7.41-7.411-7.41c0,0-0.604,3.238-1.646,4.665"/>
		</g>
		<g>
			<path fill="#8D0000" d="M62.5,51.035H47.679c-0.69,0-1.25-0.56-1.25-1.25s0.56-1.25,1.25-1.25h13.443
				c-0.514-2.482-2.526-4.424-5.046-4.831c-0.289,1.175-2.431-0.412-2.216-1.559c0.11-0.592,0.627-1.021,1.229-1.021
				c4.775,0,8.661,3.885,8.661,8.66C63.75,50.476,63.19,51.035,62.5,51.035z"/>
		</g>
	</g>
	<g>
		<g>
			<path fill="#FFFFFF" d="M41.75,46.821c-4.446,0-7.41-1.482-7.41-4.446c0-4.446,2.964-4.446,2.964-4.446v-1.482H22.482
				c-5.729,0-10.374,4.646-10.374,10.375c0,0,8.893,0,10.374,0c1.482,0,2.965,1.481,2.965,2.964s0,0,0,0H49.16
				c3.274,0,5.929-2.654,5.929-5.929l-2.964-17.785h-1.482l1.482,16.303c0,2.964-1.482,4.446-4.446,4.446
				C46.196,46.821,41.75,46.821,41.75,46.821z"/>
		</g>
		<g>
			<path fill="#8D0000" d="M25.447,51.694c-0.69,0-1.25-0.56-1.25-1.25v-0.659c0-0.785-0.93-1.714-1.715-1.714H12.108
				c-0.69,0-1.25-0.56-1.25-1.25c0-6.41,5.214-11.625,11.624-11.625h14.821c0.69,0,1.25,0.56,1.25,1.25v1.482
				c0,0.69-0.56,1.25-1.25,1.25c-0.262,0.015-1.714,0.239-1.714,3.196c0,2.885,4.308,3.196,6.16,3.196h5.929
				c2.252,0,3.182-0.911,3.196-3.142l-1.478-16.245c-0.031-0.35,0.085-0.697,0.322-0.956c0.236-0.259,0.571-0.407,0.923-0.407h1.482
				c0.611,0,1.133,0.442,1.233,1.044l2.964,17.785c0.011,0.067,0.017,0.136,0.017,0.205c0,3.958-3.221,7.179-7.179,7.179H26.549
				C26.338,51.428,25.924,51.694,25.447,51.694z M26.474,48.535H49.16c2.547,0,4.626-2.046,4.678-4.581l-0.691-4.148l0.224,2.456
				c0.003,0.038,0.005,0.075,0.005,0.113c0,3.673-2.023,5.696-5.696,5.696H41.75c-5.423,0-8.66-2.13-8.66-5.696
				c0-2.381,0.77-3.836,1.71-4.679H22.482c-4.607,0-8.427,3.433-9.039,7.875h9.039C24.223,45.571,25.887,46.893,26.474,48.535z"/>
		</g>
	</g>
	<g>
		<g>
			<path fill="#FFFFFF" d="M55.582,32c-1.637,0-2.964-1.327-2.964-2.964c0-1.637,1.327-2.964,2.964-2.964V32z"/>
		</g>
		<g>
			<path fill="#8D0000" d="M55.582,33.25c-2.323,0-4.214-1.891-4.214-4.214s1.891-4.214,4.214-4.214c0.69,0,1.25,0.56,1.25,1.25V32
				C56.832,32.69,56.272,33.25,55.582,33.25z M54.332,27.864c-0.287,0.307-0.464,0.719-0.464,1.171s0.177,0.865,0.464,1.172V27.864z
				"/>
		</g>
	</g>
	<g>
		<path fill="#8D0000" d="M50.643,30.286h-2.964c-0.69,0-1.25-0.56-1.25-1.25s0.56-1.25,1.25-1.25h2.964c0.69,0,1.25,0.56,1.25,1.25
			S51.333,30.286,50.643,30.286z"/>
	</g>
	<g>
		<path fill="#8D0000" d="M21.367,40.743c-0.609,0-1.143-0.446-1.235-1.067c-0.101-0.683,0.371-1.318,1.054-1.419
			c0.433-0.064,0.869-0.097,1.297-0.097c0.69,0,1.25,0.56,1.25,1.25s-0.56,1.25-1.25,1.25c-0.306,0-0.619,0.023-0.932,0.069
			C21.489,40.739,21.427,40.743,21.367,40.743z"/>
	</g>
	<g>
		<path fill="#8D0000" d="M15.742,44.985c-0.174,0-0.352-0.036-0.521-0.114c-0.627-0.288-0.902-1.03-0.614-1.657
			c0.726-1.582,1.898-2.896,3.388-3.802c0.589-0.357,1.358-0.171,1.717,0.419c0.358,0.591,0.17,1.359-0.419,1.718
			c-1.062,0.646-1.897,1.582-2.415,2.708C16.668,44.716,16.216,44.985,15.742,44.985z"/>
	</g>
	<g>
		<g>
			<path fill="#8D0000" d="M49.162,45.668c-0.664,0-1.305-0.366-1.622-1.001L43.507,36.6l-7.983-1.331
				c-0.986-0.164-1.652-1.097-1.488-2.085c0.164-0.986,1.099-1.652,2.085-1.488l8.893,1.482c0.571,0.095,1.063,0.458,1.321,0.977
				l4.446,8.893c0.448,0.895,0.085,1.982-0.81,2.43C49.711,45.607,49.434,45.668,49.162,45.668z"/>
		</g>
	</g>
	<g>
		<g>
			<path fill="#8D0000" d="M32.706,32.779c-0.075-0.303-1.791-7.493,3.511-14.563c1.063-1.418,3.077-1.706,4.496-0.643
				c1.418,1.064,1.706,3.078,0.643,4.496c-3.411,4.548-2.453,8.997-2.41,9.184l-0.008-0.032c0.24,0.741,0.547,3.15,0.547,3.15
				s-1.779,1.243-3.653,0.938C34.062,35.02,33.046,33.988,32.706,32.779z"/>
		</g>
	</g>
	<g>
		<g>
			<path fill="#8D0000" d="M47.679,29.365c-3.709,0-6.587-1.671-8.104-4.707c-1.086-2.172-1.117-4.281-1.117-4.515
				c0-1,0.811-1.812,1.811-1.812c0.998,0,1.807,0.806,1.812,1.803c0.001,0.041,0.033,1.561,0.782,2.997
				c0.918,1.757,2.493,2.611,4.817,2.611c1,0,1.812,0.811,1.812,1.812S48.679,29.365,47.679,29.365z"/>
		</g>
	</g>
	<g>
		<circle fill="#8D0000" cx="41.75" cy="12.732" r="4.446"/>
	</g>
	<g>
		<path fill="#8D0000" d="M20.288,32.494c0-0.363,0.294-0.659,0.658-0.659h15.26c0.363,0,0.658,0.295,0.658,0.659v2.086
			c0,0.363-0.295,0.658-0.658,0.658h-15.26c-0.364,0-0.658-0.295-0.658-0.658V32.494z"/>
	</g>
	<g>
		<path fill="#8D0000" d="M28.435,18.916H13.747c-0.69,0-1.25-0.56-1.25-1.25s0.56-1.25,1.25-1.25h14.688
			c0.69,0,1.25,0.56,1.25,1.25S29.125,18.916,28.435,18.916z"/>
	</g>
	<g>
		<path fill="#8D0000" d="M22.311,25.039H7.624c-0.69,0-1.25-0.56-1.25-1.25s0.56-1.25,1.25-1.25h14.687c0.69,0,1.25,0.56,1.25,1.25
			S23.001,25.039,22.311,25.039z"/>
	</g>
	<g>
		<path fill="#8D0000" d="M16.187,31.163H1.5c-0.69,0-1.25-0.56-1.25-1.25s0.56-1.25,1.25-1.25h14.687c0.69,0,1.25,0.56,1.25,1.25
			S16.877,31.163,16.187,31.163z"/>
	</g>
</g>
</svg>
