<?xml version="1.0" encoding="utf-8"?>
<!-- Generator: Adobe Illustrator 16.0.0, SVG Export Plug-In . SVG Version: 6.00 Build 0)  -->
<!DOCTYPE svg PUBLIC "-//W3C//DTD SVG 1.1//EN" "http://www.w3.org/Graphics/SVG/1.1/DTD/svg11.dtd">
<svg version="1.1" id="Layer_1" xmlns="http://www.w3.org/2000/svg" xmlns:xlink="http://www.w3.org/1999/xlink" x="0px" y="0px"
	 width="64px" height="64px" viewBox="0 0 64 64" enable-background="new 0 0 64 64" xml:space="preserve">
<g>
	<g>
		<path fill="#FFFFFF" d="M39.862,20.746v-1.827c0-1.389-1.126-2.515-2.515-2.515c-1.39,0-2.516,1.126-2.516,2.515v1.89"/>
		<path fill="#8D0000" d="M34.832,22.059c-0.69,0-1.25-0.56-1.25-1.25v-1.89c0-2.076,1.689-3.765,3.766-3.765
			s3.765,1.689,3.765,3.765v1.827c0,0.69-0.56,1.25-1.25,1.25s-1.25-0.56-1.25-1.25v-1.827c0-0.697-0.567-1.265-1.265-1.265
			c-0.698,0-1.266,0.567-1.266,1.265v1.89C36.082,21.499,35.522,22.059,34.832,22.059z"/>
	</g>
	<g>
		<path fill="#FFFFFF" d="M14.711,43.571c0-12.503,10.135-22.636,22.637-22.636s22.637,10.133,22.637,22.636"/>
		<path fill="#8D0000" d="M59.984,44.821c-0.69,0-1.25-0.56-1.25-1.25c0-11.792-9.594-21.386-21.387-21.386
			c-11.792,0-21.387,9.594-21.387,21.386c0,0.69-0.56,1.25-1.25,1.25s-1.25-0.56-1.25-1.25c0-13.17,10.715-23.886,23.887-23.886
			c13.171,0,23.887,10.715,23.887,23.886C61.234,44.262,60.675,44.821,59.984,44.821z"/>
	</g>
	<g>
		<path fill="#8D0000" d="M18.465,40.901c-0.084,0-0.169-0.008-0.254-0.025c-0.676-0.14-1.111-0.802-0.971-1.478
			c1.757-8.509,8.721-15.009,17.329-16.173c0.683-0.097,1.314,0.386,1.406,1.071c0.093,0.684-0.387,1.313-1.07,1.406
			c-7.559,1.022-13.673,6.729-15.216,14.202C19.566,40.495,19.045,40.901,18.465,40.901z"/>
	</g>
	<g>
		<path fill="#FFFFFF" d="M62.5,45.584c0,1.11-0.902,2.012-2.012,2.012h-46.28c-1.111,0-2.013-0.901-2.013-2.012l0,0
			c0-1.111,0.901-2.013,2.013-2.013h46.28C61.598,43.571,62.5,44.473,62.5,45.584L62.5,45.584z"/>
		<path fill="#8D0000" d="M60.488,48.846h-46.28c-1.799,0-3.263-1.463-3.263-3.262s1.464-3.263,3.263-3.263h46.28
			c1.799,0,3.262,1.464,3.262,3.263S62.287,48.846,60.488,48.846z M14.208,44.821c-0.42,0-0.763,0.342-0.763,0.763
			c0,0.42,0.342,0.762,0.763,0.762h46.28c0.42,0,0.762-0.342,0.762-0.762c0-0.421-0.342-0.763-0.762-0.763H14.208z"/>
	</g>
	<g>
		<path fill="#8D0000" d="M23.64,18.915H11.566c-0.69,0-1.25-0.56-1.25-1.25s0.56-1.25,1.25-1.25H23.64c0.69,0,1.25,0.56,1.25,1.25
			S24.33,18.915,23.64,18.915z"/>
	</g>
	<g>
		<path fill="#8D0000" d="M18.606,23.948H6.533c-0.69,0-1.25-0.56-1.25-1.25s0.56-1.25,1.25-1.25h12.073c0.69,0,1.25,0.56,1.25,1.25
			S19.297,23.948,18.606,23.948z"/>
	</g>
	<g>
		<path fill="#8D0000" d="M13.573,28.981H1.5c-0.69,0-1.25-0.56-1.25-1.25s0.56-1.25,1.25-1.25h12.073c0.69,0,1.25,0.56,1.25,1.25
			S14.264,28.981,13.573,28.981z"/>
	</g>
</g>
</svg>
