<?xml version="1.0" encoding="utf-8"?>
<!-- Generator: Adobe Illustrator 16.0.0, SVG Export Plug-In . SVG Version: 6.00 Build 0)  -->
<!DOCTYPE svg PUBLIC "-//W3C//DTD SVG 1.1//EN" "http://www.w3.org/Graphics/SVG/1.1/DTD/svg11.dtd">
<svg version="1.1" id="Layer_1" xmlns="http://www.w3.org/2000/svg" xmlns:xlink="http://www.w3.org/1999/xlink" x="0px" y="0px"
	 width="64px" height="64px" viewBox="0 0 64 64" enable-background="new 0 0 64 64" xml:space="preserve">
<g>
	<g>
		<path fill="#8D0000" d="M38.435,33.5H13.892c-0.829,0-1.5-0.671-1.5-1.5s0.671-1.5,1.5-1.5h24.543c0.828,0,1.5,0.671,1.5,1.5
			S39.263,33.5,38.435,33.5z"/>
	</g>
	<g>
		<path fill="#8D0000" d="M7.695,39.695C3.452,39.695,0,36.243,0,32c0-4.244,3.452-7.696,7.695-7.696
			c4.244,0,7.696,3.452,7.696,7.696C15.392,36.243,11.939,39.695,7.695,39.695z M7.695,27.304C5.106,27.304,3,29.411,3,32
			c0,2.589,2.106,4.695,4.695,4.695c2.589,0,4.696-2.106,4.696-4.695C12.392,29.411,10.285,27.304,7.695,27.304z"/>
	</g>
	<g>
		<path fill="#8D0000" d="M33.906,62.094c-8.039,0-15.596-3.13-21.279-8.814c-2.405-2.403-4.371-5.176-5.844-8.238
			c-0.359-0.747-0.044-1.644,0.702-2.002c0.746-0.358,1.643-0.046,2.002,0.701c1.326,2.758,3.096,5.253,5.261,7.418
			c5.117,5.117,11.921,7.936,19.158,7.936s14.041-2.818,19.158-7.936S61,39.237,61,32c0-7.237-2.818-14.041-7.936-19.158
			S41.143,4.906,33.906,4.906c-7.237,0-14.041,2.818-19.158,7.936c-2.166,2.166-3.936,4.661-5.261,7.417
			c-0.359,0.747-1.256,1.06-2.002,0.702c-0.747-0.359-1.061-1.255-0.702-2.002c1.473-3.062,3.438-5.834,5.844-8.239
			c5.684-5.684,13.241-8.815,21.279-8.815c8.038,0,15.596,3.131,21.279,8.815C60.87,16.404,64,23.962,64,32
			c0,8.039-3.13,15.596-8.814,21.279C49.502,58.964,41.944,62.094,33.906,62.094z"/>
	</g>
	<g>
		<path fill="#8D0000" d="M35.337,41.84c-0.828,0-1.5-0.672-1.5-1.5v-7.863c0-0.829,0.672-1.5,1.5-1.5s1.5,0.671,1.5,1.5v7.863
			C36.837,41.168,36.165,41.84,35.337,41.84z"/>
	</g>
	<g>
		<path fill="#8D0000" d="M30.522,39.456c-0.829,0-1.5-0.672-1.5-1.5v-5.479c0-0.829,0.671-1.5,1.5-1.5s1.5,0.671,1.5,1.5v5.479
			C32.022,38.784,31.351,39.456,30.522,39.456z"/>
	</g>
	<g>
		<path fill="#8D0000" d="M25.708,41.84c-0.829,0-1.5-0.672-1.5-1.5v-7.863c0-0.829,0.671-1.5,1.5-1.5s1.5,0.671,1.5,1.5v7.863
			C27.208,41.168,26.537,41.84,25.708,41.84z"/>
	</g>
</g>
</svg>
